<svg width="100" height="100" viewBox="0 0 100 100" fill="none" xmlns="http://www.w3.org/2000/svg">
<path d="M50 100C77.6142 100 100 77.6142 100 50C100 22.3858 77.6142 0 50 0C22.3858 0 0 22.3858 0 50C0 77.6142 22.3858 100 50 100Z" fill="#BAB1AB"/>
<path d="M90.7001 48.6C90.7001 54.1 88.7001 57.9 84.7001 59.9C83.5001 60.5 79.9001 61.3 73.7001 62.3C69.7001 63 67.7001 64.5 67.7001 66.9V77.1C67.7001 77.5 67.8 78.8 68.1 81L68.5001 85C68.5001 86.3 68.2 88.3 67.6 91.1C66 91.4 64.2 91.8 62.1 92.2C61.4 89.7 61.1 88 61.1 87.1C61.1 86.7 61.2001 86.1 61.4001 85.2C61.6001 84.4 61.7001 83.7 61.7001 83.3C61.7001 82.7 61.2 81.1 60.1 78.4H58.2001C57.9001 78.8 57.9001 79.4 57.9001 80C58.2001 81.4 58.4 82.6 58.3 83.6C56.9 84.6 54.9001 85.9 52.4001 87.6C51.8001 87.4 51.6 87.4 51.8 87.4V78.5C51.6 78.1 51.2001 77.9 50.5001 78H49.0001L47.5001 89.8C46.3001 89.9 44.9001 89.9 43.2001 89.8C42.6001 87 41.6 82.9 40.1 77.5H39.1C38.2 80.4 37.7 82 37.6 82.3C37.6 82.6 37.7001 83.3 37.9001 84.2C38.1001 85.2 38.2001 85.8 38.2001 86.1C38.2001 86.3 38.1001 87 38.0001 88L37.6 91C37.4 91.2 37.2001 91.2 37.0001 91.2C34.5001 91.2 32.8001 90.6 32.0001 89.3C31.2001 88 30.8001 86.3 31.0001 84L32.0001 69C32.0001 68.7 32.1001 68.4 32.2001 68C32.4001 67.6 32.4001 67.3 32.4001 67.1C32.4001 66.4 31.7 65.1 30.3 63.1C30.1 63 28.8001 62.7 26.4001 62.2C25.0001 61.9 22.2001 61.3 18.0001 60.4C12.2001 59.3 9.30005 54.7 9.30005 46.5C9.30005 34.3 14.3001 24.1 24.4001 16C24.8001 18.3 25.5001 21.3 26.5001 25C27.3001 25.2 28.9001 25.5 31.4001 26.1C31.9001 26.3 34.5 27.2 39.1 28.9C36.8 27.5 33.7001 25.2 29.9001 22C28.5001 20.3 27.8 17.5 27.8 13.6C27.8 12.7 29.4 11.6 32.6 10.3C35.4 9.10003 37.6001 8.50003 39.0001 8.30003C43.5001 7.70003 47.0001 7.40002 49.4001 7.40002C59.8001 7.40002 68.3001 10.1 74.7001 15.4C72.6001 17.8 69.0001 20.4 63.9001 23.2C65.9001 23.3 68.8001 22.5 72.7001 20.8C76.5001 19.1 78.2 18.3 77.6 18.3C78.3 18.3 79.6 19.6 81.6 22.3C83.1 24.3 84.3001 26.1 85.2001 27.7C87.9001 32.5 89.7 37.6 90.6 43.1C90.6 45 90.6001 46.4 90.7001 47.2V48.6ZM42.7001 50.9C42.7001 47.3 41.1001 43.9 38.0001 40.7C34.9001 37.5 31.5001 35.9 27.9001 35.9C24.7001 35.9 21.9001 37.2 19.5001 39.9C17.1001 42.6 15.9001 45.6 15.9001 48.9C15.9001 51.8 17.3001 53.6 20.0001 54.5C21.8001 55 24.2001 55.3 27.4001 55.4H34.3C39.9 55.4 42.7001 53.9 42.7001 50.9ZM56.3 66.4V62.5C55.7 61.4 55.1001 60.3 54.5001 59.1C54.0001 57.4 53.1001 55.1 51.7001 52.1L50.3 66.8C50.3 68 50.1001 68.6 49.5001 68.6C49.2001 68.6 48.9001 68.5 48.7001 68.4C48.1001 59.5 47.8 55.7 47.8 56.9V52.5C47.6 52.2 47.4001 52.1 47.2001 52.1C44.4001 55 42.9001 59.8 42.9001 66.3C42.9001 69.9 43.2001 72.1 43.9001 72.9C44.6001 72.7 45.3001 72.4 46.2001 72C46.5001 71.8 47.5 71.7 49.1 71.7C50.7 71.7 52.6001 72.2 54.9001 73.2C55.9001 73.2 56.3 70.9 56.3 66.4ZM84.7001 49C84.7001 45.6 83.4001 42.6 80.9001 40C78.4001 37.4 75.5001 36 72.2001 36C68.7001 36 65.4001 37.6 62.4001 40.8C59.3001 44 57.8 47.4 57.8 50.9C57.8 53.8 59.2 55.3 62.1 55.3H76.5001C82.0001 55.2 84.7001 53.1 84.7001 49Z" fill="#0D0F0F"/>
</svg>
