<svg width="100" height="100" viewBox="0 0 100 100" fill="none" xmlns="http://www.w3.org/2000/svg">
<path d="M50 100C77.6142 100 100 77.6142 100 50C100 22.3858 77.6142 0 50 0C22.3858 0 0 22.3858 0 50C0 77.6142 22.3858 100 50 100Z" fill="#C1D7E9"/>
<path d="M67.5001 83.7C62.7001 88.6 56.8001 91 49.8001 91C41.9001 91 35.7001 88.3 31.1001 82.9C26.7001 77.8 24.6001 71.2 24.6001 63.3C24.6001 54.8 28.3001 45 35.7001 34.1C41.8001 25.1 48.9001 17.3 57.1001 10.5C55.9001 16 55.3001 19.9 55.3001 22.2C55.3001 27.5 57.0001 32.7 60.3001 37.7C64.4001 43.7 67.5001 48.1 69.7001 51C73.0001 56 74.7001 61 74.7001 65.7C74.7001 72.9 72.3001 78.9 67.5001 83.7ZM67.4001 56.4C66.1001 53.5 64.6001 51.6 62.9001 50.7C63.2001 51.2 63.3001 51.9 63.3001 52.9C63.3001 54.7 62.8001 57.3 61.8001 60.6L60.1001 65.7C60.1001 68.7 61.6001 70.2 64.6001 70.2C67.8001 70.2 69.3001 68.1 69.3001 63.9C69.3001 61.7 68.6001 59.2 67.4001 56.4Z" fill="#0D0F0F"/>
</svg>
