<svg width="100" height="100" viewBox="0 0 100 100" fill="none" xmlns="http://www.w3.org/2000/svg">
<path d="M100 50C100 77.6 77.6 100 50 100C22.4 100 0 77.6 0 50C0 22.4 22.4 0 50 0C77.6 0 100 22.4 100 50Z" fill="#A3C095"/>
<path d="M93.7999 56.2C93.7999 57.9 93.2 59.4 91.9 60.7C90.6 62 89.0999 62.7 87.4999 62.7C84.7999 62.7 82.8999 61.5 81.5999 59L75.7 58.8C74.4 58.8 71.9999 59.3 68.2999 60.4C64.3999 61.5 62.0999 62.4 61.5999 63C60.6999 64 59.9 66.3 59.4 70C58.9 73 58.7 75.2 58.7 76.6C58.7 78.8 59.0999 80.5 59.7999 81.5C60.4999 82.5 62 83.4 64.2 84.1C66.4 84.8 67.7999 85.2 68.2999 85.3C68.5999 85.3 69.2 85.3 69.9 85.2H71.4C72.5 85.2 73.5999 85.4 74.7999 85.7C76.4999 86.2 77.2 86.9 76.9 87.7C75.7 87.5 73.6999 87.8 70.7999 88.5L74.2999 90.2C74.2999 91.2 72.8999 91.7 70.0999 91.7C69.2999 91.7 68.2999 91.5 66.9999 91.2C65.6999 90.9 64.9 90.7 64.4 90.7H62.7999C62.6999 91.5 62.4999 92.8 61.9999 94.4C60.5999 94.3 58.8999 93.5 56.9999 91.9C55.0999 90.3 53.9 89.5 53.4 89.5C52.9 89.5 52.1999 90.3 51.2999 91.9C50.3999 93.5 49.9 94.6 49.9 95.1C48.8 94.5 47.8999 93.4 47.0999 91.9C46.7999 90.8 46.3999 89.7 45.9999 88.7C45.1999 88.8 43.6 90.5 41.4 93.9H40.7999C40.5999 93.6 40 91.9 38.9 88.7C36.3 87.9 33.9 87.5 31.7 87.5C30.6 87.5 29 87.7 26.7 88.2L23.2 88C23.7 87.5 25.1999 86.5 27.5999 85.1C30.3999 83.4 32.5999 82.6 34.0999 82.6C34.2999 82.6 34.6999 82.6 35.0999 82.7C35.4999 82.8 35.8999 82.8 36.0999 82.8C36.6999 82.8 37.6 82.5 38.9 81.9C40.2 81.3 40.8999 80.7 41.0999 80.2C41.2999 79.7 41.4 78.4 41.4 76.3C41.4 71.6 40.1999 68 37.5999 65.7C35.3999 63.6 31.9 62.1 26.9 61.2C25.6 65.9 21.8 68.3 15.7 68.3C13.7 68.3 11.7 67.1 9.69995 64.7C7.69995 62.3 6.69995 60.1 6.69995 58.1C6.69995 55 7.99991 52.5 10.5999 50.5C8.49991 48.3 7.49994 46.1 7.49994 43.9C7.49994 41.8 8.09996 40 9.39996 38.4C10.7 36.8 12.3999 35.9 14.4999 35.7C14.2999 33 15.1999 31.2 17.0999 30.2C16.1999 29.3 15.7 27.7 15.7 25.3C15.7 22.6 16.6 20.3 18.4 18.4C20.2 16.6 22.4999 15.6 25.2999 15.6C28.2999 15.6 30.8 16.6 32.7 18.7C35.1 10.5 40.2999 6.29999 48.2999 6.29999C52.4999 6.29999 56.0999 7.99999 59.2999 11.3C60.4999 12.5 60.9999 13.2 60.9999 13.3C59.9999 13.3 60.4999 13.1 62.4999 12.7C64.4999 12.3 66 12.1 66.9 12.1C70.1 12.1 72.9999 13.3 75.4999 15.7C77.6999 17.9 79.1999 20.6 79.9999 23.9C80.5999 24 81.5 24.2 82.7 24.6C84.5 25.5 85.4 27.1 85.4 29.3C85.4 29.7 85.1 30.5 84.4 31.7C89.7 34.7 92.4 38.9 92.4 44.2C92.4 45.7 91.8 47.8 90.7 50.4C92.7 52 93.7999 53.8 93.7999 56.2ZM42.2999 61.7V60.1C42.2999 58.2 41.3999 56.4 39.4999 54.9C37.5999 53.3 35.6999 52.5 33.7999 52.5C31.4999 52.5 29.2999 53 27.2999 54.1C31.6999 53.9 36.6999 56.4 42.2999 61.7ZM39.9999 46.2C38.7999 44.8 37.6999 43.3 36.7999 41.8C33.2999 42.7 31.5999 43.8 31.5999 44.9C32.5999 44.8 34.0999 45 35.9999 45.5C37.8999 46 39.1999 46.2 39.9999 46.2ZM47.7 42.4V36.9C45.7 36.6 44.4999 36.4 44.0999 36.4V38.3L47.7 42.4ZM63.9 38.9C62.9 38.5 60.9999 37.7 58.2999 36.4V47.1C62.1999 44.9 64.1 42.1 63.9 38.9ZM70.7999 53.6L68.0999 50.2C66.3999 51.4 64.6999 52.6 62.9999 53.8C61.2999 55 59.7999 56.4 58.5999 57.9C62.2999 55.9 66.3999 54.4 70.7999 53.6Z" fill="#0D0F0F"/>
</svg>
