<svg width="100" height="100" viewBox="0 0 100 100" fill="none" xmlns="http://www.w3.org/2000/svg">
<path d="M50 100C77.6142 100 100 77.6142 100 50C100 22.3858 77.6142 0 50 0C22.3858 0 0 22.3858 0 50C0 77.6142 22.3858 100 50 100Z" fill="#E49977"/>
<path d="M92.0001 66.6C88.3001 75.5 80.8001 80 69.7001 80C67.7001 80 65.5 80.3 63.1 80.8C59.5 81.6 57.8 82.6 57.8 84C57.8 84.4 58.1001 84.9 58.7001 85.5C59.3001 86.1 59.8001 86.3 60.2001 86.3C58.1001 86.3 59.5001 86.4 64.5001 86.5C69.5001 86.6 72.6001 86.7 73.9001 86.7C66.5001 91 54.2001 93 36.9001 92.7C31.2001 92.6 26.3 90.1 22.3 85.2C18.3 80.5 16.3 75.3 16.3 69.5C16.3 63.4 18.4001 58.2 22.5001 53.9C26.6001 49.6 31.7 47.5 37.8 47.5C39.2 47.5 41.0001 47.8 43.2001 48.4C45.4001 49 47.0001 49.3 47.7001 49.3C50.8001 49.3 54.7001 48 59.4001 45.4C64.1001 42.8 66.3001 41.5 66.0001 41.5C65.2001 50.4 62.2 56.4 57.1 59.4C53.5 61.5 51.6 63.6 51.6 65.6C51.6 66.9 52.4001 67.9 53.9001 68.7C55.1001 69.3 56.4 69.6 57.8 69.6C60 69.6 62.2 68.2 64.3 65.5C66.4 62.8 67.4 60.3 67.1 58.1C66.8 55.6 67 52.5 67.6 48.9C67.8 47.9 68.4001 46.6 69.4001 45.1C70.5001 43.6 71.4 42.7 72.3 42.4C72.3 43.2 72.0001 44.4 71.5001 46.2C70.9001 48 70.7001 49.3 70.7001 50.1C70.7001 52 71.2001 53.4 72.2001 54.4C73.7001 53.8 75.1 51.9 76.3 48.7C77.3 46.2 77.9 43.9 78.1 41.6C74.5 41.4 71.1001 39.8 67.9001 36.8C64.6001 33.7 63.0001 30.4 63.0001 26.9C63.0001 26.3 63.1 25.7 63.3 25.1C63.8 25.9 64.6 27.1 65.6 28.7C67 30.8 68.1001 31.9 68.9001 31.9C69.9001 31.9 70.4001 30.8 70.4001 28.7C70.4001 26 69.7001 23.5 68.2001 21.3C66.6001 18.7 64.5001 17.4 62.0001 17.4C60.8001 17.4 59.0001 18 56.7001 19.3C54.3001 20.6 52.2001 21.2 50.2001 21.2C49.6001 21.2 47 20.4 42.3 18.9C50.5 17.5 54.6 16.3 54.6 15.2C54.6 12.3 49.0001 10.4 37.7001 9.29999C36.6001 9.19999 34.6 8.99999 31.6 8.79999C31.9 8.39999 34.4001 7.89998 38.9001 7.39998C42.7001 6.99998 45.4001 6.79999 46.9001 6.79999C67.1001 6.79999 79.9 16.6 85.3 36.2C86.2 35.4 86.7001 34.1 86.7001 32.3C86.7001 30 86.0001 27.1 84.7001 23.5C84.2001 22.1 83.4 20.1 82.3 17.3C89.3 26.2 92.7001 34.6 92.7001 42.5C92.7001 46.7 91.7 50.5 89.8 53.9C88.5 56.2 86.1001 59.1 82.7001 62.7C79.2001 66.3 76.8 69.1 75.6 71C80.3 69.7 83.3 68.8 84.8 68.1C88 66.7 91 64.5 93.6 61.6C93.4 62.8 92.9001 64.4 92.0001 66.6ZM36.5001 16.6C36.5001 18.1 35.7001 19.1 34.0001 19.5L30.7001 20C29.5001 20.6 27.8001 22.9 25.5001 27C25.2001 25.7 24.9001 23.9 24.4001 21.7C23.6001 21.8 22.4 22.5 20.6 23.7C19.8 24.3 18.6001 25.2 16.9001 26.4C17.4001 23.3 19.1001 20.3 22.0001 17.1C25.1001 13.6 28.0001 11.9 30.9001 11.9C34.6001 11.9 36.5001 13.5 36.5001 16.6ZM58.6 28.3C58.6 29.7 57.8001 31 56.2001 31.9C54.6001 32.9 53.1 33.4 51.6 33.4C49.6 33.4 47.7 32.3 46.1 30C44.1 27.2 42.2 25.4 40.1 24.5C40.5 24.1 41 23.9 41.6 23.9C42.4 23.9 43.7001 24.5 45.5001 25.7C47.3001 26.9 48.5001 27.5 49.0001 27.5C49.4001 27.5 50.1 26.9 51.1 25.7C52.1 24.5 53.2 23.9 54.3 23.9C57.2 23.8 58.6 25.3 58.6 28.3Z" fill="#0D0F0F"/>
</svg>
